<svg width="55" height="55" viewBox="0 0 55 55" fill="none" xmlns="http://www.w3.org/2000/svg">
<rect width="55" height="55" rx="4" fill="#FDFDFD"/>
<path d="M32.2743 19.8611C32.2743 21.1274 31.7713 22.3417 30.8759 23.2371C29.9806 24.1324 28.7662 24.6354 27.5 24.6354C26.2338 24.6354 25.0194 24.1324 24.124 23.2371C23.2287 22.3417 22.7257 21.1274 22.7257 19.8611C22.7257 18.5949 23.2287 17.3805 24.124 16.4852C25.0194 15.5898 26.2338 15.0868 27.5 15.0868C28.7662 15.0868 29.9806 15.5898 30.8759 16.4852C31.7713 17.3805 32.2743 18.5949 32.2743 19.8611ZM17.9526 37.8354C17.9935 35.3303 19.0174 32.9417 20.8034 31.1846C22.5895 29.4275 24.9945 28.4427 27.5 28.4427C30.0054 28.4427 32.4105 29.4275 34.1965 31.1846C35.9825 32.9417 37.0064 35.3303 37.0473 37.8354C34.0521 39.2089 30.7951 39.9177 27.5 39.9132C24.093 39.9132 20.8592 39.1697 17.9526 37.8354Z" stroke="#14213D" stroke-width="1.5" stroke-linecap="round" stroke-linejoin="round"/>
</svg>
