<svg width="303" height="189" viewBox="0 0 303 189" fill="none" xmlns="http://www.w3.org/2000/svg">
<path d="M10.748 168V155.555H14.453C15.3017 155.555 16.049 155.656 16.695 155.859C17.3537 156.049 17.8667 156.366 18.234 156.809C18.614 157.252 18.804 157.848 18.804 158.595C18.804 159.203 18.6267 159.76 18.272 160.267C17.9173 160.774 17.3727 161.122 16.638 161.312V161.388C17.5373 161.527 18.234 161.844 18.728 162.338C19.222 162.832 19.469 163.503 19.469 164.352C19.469 165.175 19.2663 165.859 18.861 166.404C18.4683 166.936 17.9173 167.335 17.208 167.601C16.4987 167.867 15.6817 168 14.757 168H10.748ZM12.648 160.723H14.225C15.1877 160.723 15.878 160.565 16.296 160.248C16.7267 159.919 16.942 159.437 16.942 158.804C16.942 158.183 16.7203 157.746 16.277 157.493C15.8337 157.24 15.1687 157.113 14.282 157.113H12.648V160.723ZM12.648 166.442H14.529C15.517 166.442 16.277 166.271 16.809 165.929C17.341 165.574 17.607 165.011 17.607 164.238C17.607 163.529 17.341 163.022 16.809 162.718C16.2897 162.401 15.5297 162.243 14.529 162.243H12.648V166.442ZM25.7316 168.228C25.1362 168.228 24.5979 168.12 24.1166 167.905C23.6479 167.677 23.2742 167.367 22.9956 166.974C22.7296 166.569 22.5966 166.094 22.5966 165.549C22.5966 164.51 23.1032 163.719 24.1166 163.174C25.1426 162.629 26.8209 162.268 29.1516 162.091C29.1389 161.711 29.0502 161.363 28.8856 161.046C28.7336 160.729 28.4866 160.482 28.1446 160.305C27.8152 160.115 27.3782 160.02 26.8336 160.02C26.4536 160.02 26.0799 160.071 25.7126 160.172C25.3452 160.261 24.9906 160.387 24.6486 160.552C24.3066 160.717 23.9836 160.888 23.6796 161.065L22.9766 159.792C23.3186 159.589 23.7112 159.387 24.1546 159.184C24.5979 158.969 25.0729 158.798 25.5796 158.671C26.0989 158.544 26.6246 158.481 27.1566 158.481C28.0179 158.481 28.7336 158.639 29.3036 158.956C29.8736 159.273 30.3042 159.722 30.5956 160.305C30.8869 160.888 31.0326 161.591 31.0326 162.414V168H29.4936L29.3416 166.803H29.2846C28.7906 167.183 28.2332 167.519 27.6126 167.81C26.9919 168.089 26.3649 168.228 25.7316 168.228ZM26.2636 166.727C26.7576 166.727 27.2452 166.619 27.7266 166.404C28.2079 166.189 28.6829 165.885 29.1516 165.492V163.288C27.9356 163.377 26.9792 163.516 26.2826 163.706C25.5986 163.896 25.1172 164.137 24.8386 164.428C24.5599 164.707 24.4206 165.036 24.4206 165.416C24.4206 165.72 24.5029 165.973 24.6676 166.176C24.8449 166.366 25.0729 166.505 25.3516 166.594C25.6302 166.683 25.9342 166.727 26.2636 166.727ZM40.9622 168.228C39.9362 168.228 39.1508 167.93 38.6062 167.335C38.0615 166.727 37.7892 165.866 37.7892 164.751V156.049H34.6922V154.529H39.6702V164.865C39.6702 165.511 39.8348 165.98 40.1642 166.271C40.4935 166.55 40.9052 166.689 41.3992 166.689C41.6525 166.689 41.9122 166.657 42.1782 166.594C42.4568 166.531 42.7608 166.429 43.0902 166.29L43.5462 167.696C43.1028 167.848 42.6912 167.975 42.3112 168.076C41.9438 168.177 41.4942 168.228 40.9622 168.228ZM47.3197 168V154.529H49.2007V163.307H49.2767L53.8557 158.709H55.9647L49.2007 165.53V168H47.3197ZM54.3497 168L50.9487 163.25L52.0697 162.053L56.4207 168H54.3497ZM62.1893 168.228C61.594 168.228 61.0556 168.12 60.5743 167.905C60.1056 167.677 59.732 167.367 59.4533 166.974C59.1873 166.569 59.0543 166.094 59.0543 165.549C59.0543 164.51 59.561 163.719 60.5743 163.174C61.6003 162.629 63.2786 162.268 65.6093 162.091C65.5966 161.711 65.508 161.363 65.3433 161.046C65.1913 160.729 64.9443 160.482 64.6023 160.305C64.273 160.115 63.836 160.02 63.2913 160.02C62.9113 160.02 62.5376 160.071 62.1703 160.172C61.803 160.261 61.4483 160.387 61.1063 160.552C60.7643 160.717 60.4413 160.888 60.1373 161.065L59.4343 159.792C59.7763 159.589 60.169 159.387 60.6123 159.184C61.0556 158.969 61.5306 158.798 62.0373 158.671C62.5566 158.544 63.0823 158.481 63.6143 158.481C64.4756 158.481 65.1913 158.639 65.7613 158.956C66.3313 159.273 66.762 159.722 67.0533 160.305C67.3446 160.888 67.4903 161.591 67.4903 162.414V168H65.9513L65.7993 166.803H65.7423C65.2483 167.183 64.691 167.519 64.0703 167.81C63.4496 168.089 62.8226 168.228 62.1893 168.228ZM62.7213 166.727C63.2153 166.727 63.703 166.619 64.1843 166.404C64.6656 166.189 65.1406 165.885 65.6093 165.492V163.288C64.3933 163.377 63.437 163.516 62.7403 163.706C62.0563 163.896 61.575 164.137 61.2963 164.428C61.0176 164.707 60.8783 165.036 60.8783 165.416C60.8783 165.72 60.9606 165.973 61.1253 166.176C61.3026 166.366 61.5306 166.505 61.8093 166.594C62.088 166.683 62.392 166.727 62.7213 166.727ZM71.4349 168V158.709H72.9739L73.1259 160.21H73.2019C73.6706 159.729 74.1772 159.323 74.7219 158.994C75.2666 158.652 75.8999 158.481 76.6219 158.481C77.6986 158.481 78.4902 158.81 78.9969 159.469C79.5162 160.115 79.7759 161.04 79.7759 162.243V168H77.8949V162.49C77.8949 161.679 77.7429 161.084 77.4389 160.704C77.1476 160.311 76.6536 160.115 75.9569 160.115C75.4629 160.115 75.0196 160.242 74.6269 160.495C74.2342 160.736 73.7972 161.103 73.3159 161.597V168H71.4349ZM95.493 168V155.555H97.412V160.666H102.124V155.555H104.043V168H102.124V162.319H97.412V168H95.493ZM110.8 168.228C110.204 168.228 109.666 168.12 109.185 167.905C108.716 167.677 108.342 167.367 108.064 166.974C107.798 166.569 107.665 166.094 107.665 165.549C107.665 164.51 108.171 163.719 109.185 163.174C110.211 162.629 111.889 162.268 114.22 162.091C114.207 161.711 114.118 161.363 113.954 161.046C113.802 160.729 113.555 160.482 113.213 160.305C112.883 160.115 112.446 160.02 111.902 160.02C111.522 160.02 111.148 160.071 110.781 160.172C110.413 160.261 110.059 160.387 109.717 160.552C109.375 160.717 109.052 160.888 108.748 161.065L108.045 159.792C108.387 159.589 108.779 159.387 109.223 159.184C109.666 158.969 110.141 158.798 110.648 158.671C111.167 158.544 111.693 158.481 112.225 158.481C113.086 158.481 113.802 158.639 114.372 158.956C114.942 159.273 115.372 159.722 115.664 160.305C115.955 160.888 116.101 161.591 116.101 162.414V168H114.562L114.41 166.803H114.353C113.859 167.183 113.301 167.519 112.681 167.81C112.06 168.089 111.433 168.228 110.8 168.228ZM111.332 166.727C111.826 166.727 112.313 166.619 112.795 166.404C113.276 166.189 113.751 165.885 114.22 165.492V163.288C113.004 163.377 112.047 163.516 111.351 163.706C110.667 163.896 110.185 164.137 109.907 164.428C109.628 164.707 109.489 165.036 109.489 165.416C109.489 165.72 109.571 165.973 109.736 166.176C109.913 166.366 110.141 166.505 110.42 166.594C110.698 166.683 111.002 166.727 111.332 166.727ZM124.928 168.228C123.966 168.228 123.098 168.038 122.325 167.658C121.553 167.278 120.938 166.727 120.482 166.005C120.039 165.27 119.817 164.39 119.817 163.364C119.817 162.338 120.058 161.464 120.539 160.742C121.021 160.007 121.654 159.45 122.439 159.07C123.237 158.677 124.105 158.481 125.042 158.481C125.802 158.481 126.467 158.614 127.037 158.88C127.607 159.133 128.082 159.444 128.462 159.811L127.55 161.008C127.17 160.704 126.784 160.47 126.391 160.305C126.011 160.128 125.593 160.039 125.137 160.039C124.479 160.039 123.89 160.178 123.37 160.457C122.864 160.736 122.465 161.128 122.173 161.635C121.895 162.129 121.755 162.705 121.755 163.364C121.755 164.035 121.895 164.618 122.173 165.112C122.452 165.606 122.838 165.992 123.332 166.271C123.839 166.55 124.422 166.689 125.08 166.689C125.638 166.689 126.144 166.581 126.6 166.366C127.056 166.151 127.468 165.891 127.835 165.587L128.652 166.803C128.133 167.259 127.55 167.614 126.904 167.867C126.271 168.108 125.612 168.228 124.928 168.228ZM132.388 168V154.529H134.269V163.307H134.345L138.924 158.709H141.033L134.269 165.53V168H132.388ZM139.418 168L136.017 163.25L137.138 162.053L141.489 168H139.418ZM148.492 168V160.229H144.331V158.709H150.373V168H148.492ZM149.271 156.904C148.866 156.904 148.53 156.784 148.264 156.543C147.998 156.29 147.865 155.96 147.865 155.555C147.865 155.15 147.998 154.827 148.264 154.586C148.53 154.333 148.866 154.206 149.271 154.206C149.677 154.206 150.012 154.333 150.278 154.586C150.544 154.827 150.677 155.15 150.677 155.555C150.677 155.96 150.544 156.29 150.278 156.543C150.012 156.784 149.677 156.904 149.271 156.904ZM156.503 168V158.709H158.042L158.194 160.21H158.27C158.739 159.729 159.245 159.323 159.79 158.994C160.335 158.652 160.968 158.481 161.69 158.481C162.767 158.481 163.558 158.81 164.065 159.469C164.584 160.115 164.844 161.04 164.844 162.243V168H162.963V162.49C162.963 161.679 162.811 161.084 162.507 160.704C162.216 160.311 161.722 160.115 161.025 160.115C160.531 160.115 160.088 160.242 159.695 160.495C159.302 160.736 158.865 161.103 158.384 161.597V168H156.503ZM172.513 172.199C171.639 172.199 170.879 172.098 170.233 171.895C169.599 171.705 169.112 171.42 168.77 171.04C168.428 170.673 168.257 170.217 168.257 169.672C168.257 169.292 168.383 168.925 168.637 168.57C168.89 168.228 169.264 167.924 169.758 167.658V167.582C169.517 167.43 169.295 167.234 169.093 166.993C168.903 166.752 168.808 166.436 168.808 166.043C168.808 165.739 168.903 165.435 169.093 165.131C169.295 164.814 169.568 164.536 169.91 164.295V164.219C169.593 163.978 169.321 163.655 169.093 163.25C168.865 162.845 168.751 162.37 168.751 161.825C168.751 161.128 168.922 160.533 169.264 160.039C169.618 159.545 170.074 159.165 170.632 158.899C171.202 158.62 171.822 158.481 172.494 158.481C173.026 158.481 173.494 158.557 173.9 158.709H177.719V160.191H175.458C175.648 160.394 175.806 160.647 175.933 160.951C176.072 161.242 176.142 161.553 176.142 161.882C176.142 162.566 175.977 163.142 175.648 163.611C175.331 164.08 174.894 164.441 174.337 164.694C173.792 164.935 173.178 165.055 172.494 165.055C172.266 165.055 172.019 165.03 171.753 164.979C171.499 164.928 171.246 164.852 170.993 164.751C170.79 164.89 170.632 165.036 170.518 165.188C170.404 165.34 170.347 165.517 170.347 165.72C170.347 166.049 170.505 166.296 170.822 166.461C171.138 166.613 171.594 166.689 172.19 166.689H174.166C175.369 166.689 176.268 166.86 176.864 167.202C177.472 167.544 177.776 168.114 177.776 168.912C177.776 169.507 177.56 170.052 177.13 170.546C176.699 171.053 176.091 171.452 175.306 171.743C174.52 172.047 173.589 172.199 172.513 172.199ZM172.494 163.839C172.848 163.839 173.171 163.763 173.463 163.611C173.754 163.446 173.988 163.212 174.166 162.908C174.343 162.604 174.432 162.243 174.432 161.825C174.432 161.42 174.343 161.071 174.166 160.78C173.988 160.476 173.754 160.242 173.463 160.077C173.171 159.9 172.848 159.811 172.494 159.811C172.139 159.811 171.81 159.9 171.506 160.077C171.214 160.242 170.98 160.476 170.803 160.78C170.625 161.071 170.537 161.42 170.537 161.825C170.537 162.243 170.625 162.604 170.803 162.908C170.98 163.212 171.214 163.446 171.506 163.611C171.81 163.763 172.139 163.839 172.494 163.839ZM172.703 170.888C173.374 170.888 173.95 170.806 174.432 170.641C174.913 170.489 175.28 170.286 175.534 170.033C175.8 169.792 175.933 169.526 175.933 169.235C175.933 168.817 175.768 168.538 175.439 168.399C175.109 168.272 174.615 168.209 173.957 168.209H172.304C172.012 168.209 171.753 168.196 171.525 168.171C171.297 168.146 171.088 168.108 170.898 168.057C170.505 168.272 170.226 168.494 170.062 168.722C169.91 168.963 169.834 169.203 169.834 169.444C169.834 169.887 170.081 170.236 170.575 170.489C171.069 170.755 171.778 170.888 172.703 170.888ZM197.977 168.228C197.204 168.228 196.482 168.089 195.811 167.81C195.152 167.519 194.569 167.101 194.063 166.556C193.569 165.999 193.176 165.321 192.885 164.523C192.606 163.725 192.467 162.819 192.467 161.806C192.467 160.451 192.714 159.292 193.208 158.329C193.702 157.354 194.373 156.613 195.222 156.106C196.07 155.587 197.039 155.327 198.129 155.327C198.889 155.327 199.566 155.485 200.162 155.802C200.757 156.106 201.245 156.461 201.625 156.866L200.561 158.063C200.244 157.721 199.883 157.455 199.478 157.265C199.085 157.075 198.635 156.98 198.129 156.98C197.394 156.98 196.748 157.176 196.191 157.569C195.633 157.949 195.196 158.494 194.88 159.203C194.576 159.912 194.424 160.761 194.424 161.749C194.424 162.737 194.576 163.592 194.88 164.314C195.196 165.036 195.633 165.593 196.191 165.986C196.761 166.379 197.419 166.575 198.167 166.575C198.711 166.575 199.199 166.461 199.63 166.233C200.06 165.992 200.459 165.669 200.827 165.264L201.891 166.423C201.409 166.993 200.846 167.436 200.2 167.753C199.554 168.07 198.813 168.228 197.977 168.228ZM209.141 168.228C208.331 168.228 207.571 168.038 206.861 167.658C206.165 167.278 205.595 166.727 205.151 166.005C204.721 165.27 204.505 164.39 204.505 163.364C204.505 162.338 204.721 161.464 205.151 160.742C205.595 160.007 206.165 159.45 206.861 159.07C207.571 158.677 208.331 158.481 209.141 158.481C209.952 158.481 210.706 158.677 211.402 159.07C212.112 159.45 212.682 160.007 213.112 160.742C213.556 161.464 213.777 162.338 213.777 163.364C213.777 164.39 213.556 165.27 213.112 166.005C212.682 166.727 212.112 167.278 211.402 167.658C210.706 168.038 209.952 168.228 209.141 168.228ZM209.141 166.689C209.686 166.689 210.161 166.55 210.566 166.271C210.972 165.992 211.282 165.606 211.497 165.112C211.725 164.618 211.839 164.035 211.839 163.364C211.839 162.705 211.725 162.129 211.497 161.635C211.282 161.128 210.972 160.736 210.566 160.457C210.161 160.178 209.686 160.039 209.141 160.039C208.597 160.039 208.122 160.178 207.716 160.457C207.311 160.736 206.994 161.128 206.766 161.635C206.551 162.129 206.443 162.705 206.443 163.364C206.443 164.035 206.551 164.618 206.766 165.112C206.994 165.606 207.311 165.992 207.716 166.271C208.122 166.55 208.597 166.689 209.141 166.689ZM216.582 168V158.709H218.064L218.216 159.925H218.254C218.482 159.507 218.754 159.165 219.071 158.899C219.387 158.62 219.812 158.481 220.344 158.481C220.787 158.481 221.154 158.614 221.446 158.88C221.737 159.146 221.94 159.545 222.054 160.077C222.307 159.596 222.592 159.209 222.909 158.918C223.238 158.627 223.669 158.481 224.201 158.481C224.859 158.481 225.366 158.734 225.721 159.241C226.088 159.748 226.272 160.463 226.272 161.388V168H224.429V161.521C224.429 160.571 224.144 160.096 223.574 160.096C223.295 160.096 223.061 160.204 222.871 160.419C222.681 160.634 222.472 160.957 222.244 161.388V168H220.61V161.521C220.61 161.052 220.54 160.698 220.401 160.457C220.274 160.216 220.065 160.096 219.774 160.096C219.495 160.096 219.248 160.204 219.033 160.419C218.83 160.634 218.627 160.957 218.425 161.388V168H216.582ZM228.734 168V158.709H230.216L230.368 159.925H230.406C230.634 159.507 230.907 159.165 231.223 158.899C231.54 158.62 231.964 158.481 232.496 158.481C232.94 158.481 233.307 158.614 233.598 158.88C233.89 159.146 234.092 159.545 234.206 160.077C234.46 159.596 234.745 159.209 235.061 158.918C235.391 158.627 235.821 158.481 236.353 158.481C237.012 158.481 237.519 158.734 237.873 159.241C238.241 159.748 238.424 160.463 238.424 161.388V168H236.581V161.521C236.581 160.571 236.296 160.096 235.726 160.096C235.448 160.096 235.213 160.204 235.023 160.419C234.833 160.634 234.624 160.957 234.396 161.388V168H232.762V161.521C232.762 161.052 232.693 160.698 232.553 160.457C232.427 160.216 232.218 160.096 231.926 160.096C231.648 160.096 231.401 160.204 231.185 160.419C230.983 160.634 230.78 160.957 230.577 161.388V168H228.734ZM244.459 168.228C243.37 168.228 242.565 167.905 242.046 167.259C241.539 166.613 241.286 165.682 241.286 164.466V158.709H243.167V164.219C243.167 165.042 243.313 165.65 243.604 166.043C243.908 166.423 244.408 166.613 245.105 166.613C245.599 166.613 246.042 166.493 246.435 166.252C246.828 166.011 247.252 165.619 247.708 165.074V158.709H249.589V168H248.05L247.898 166.461H247.822C247.366 166.98 246.866 167.405 246.321 167.734C245.789 168.063 245.168 168.228 244.459 168.228ZM253.724 168V158.709H255.263L255.415 160.21H255.491C255.959 159.729 256.466 159.323 257.011 158.994C257.555 158.652 258.189 158.481 258.911 158.481C259.987 158.481 260.779 158.81 261.286 159.469C261.805 160.115 262.065 161.04 262.065 162.243V168H260.184V162.49C260.184 161.679 260.032 161.084 259.728 160.704C259.436 160.311 258.942 160.115 258.246 160.115C257.752 160.115 257.308 160.242 256.916 160.495C256.523 160.736 256.086 161.103 255.605 161.597V168H253.724ZM270.018 168V160.229H265.857V158.709H271.899V168H270.018ZM270.797 156.904C270.392 156.904 270.056 156.784 269.79 156.543C269.524 156.29 269.391 155.96 269.391 155.555C269.391 155.15 269.524 154.827 269.79 154.586C270.056 154.333 270.392 154.206 270.797 154.206C271.202 154.206 271.538 154.333 271.804 154.586C272.07 154.827 272.203 155.15 272.203 155.555C272.203 155.96 272.07 156.29 271.804 156.543C271.538 156.784 271.202 156.904 270.797 156.904ZM283.824 168.228C282.886 168.228 282.145 168.063 281.601 167.734C281.069 167.405 280.689 166.949 280.461 166.366C280.233 165.783 280.119 165.106 280.119 164.333V160.229H277.573V158.823L280.195 158.709L280.442 155.783H282V158.709H286.389V160.229H282V164.333C282 164.852 282.069 165.296 282.209 165.663C282.348 166.018 282.582 166.284 282.912 166.461C283.241 166.626 283.684 166.708 284.242 166.708C284.66 166.708 285.04 166.676 285.382 166.613C285.724 166.537 286.053 166.442 286.37 166.328L286.75 167.696C286.332 167.835 285.882 167.956 285.401 168.057C284.932 168.171 284.406 168.228 283.824 168.228ZM291.055 171.895C290.827 171.895 290.599 171.876 290.371 171.838C290.143 171.8 289.947 171.756 289.782 171.705L290.162 170.242C290.276 170.28 290.403 170.312 290.542 170.337C290.682 170.362 290.821 170.375 290.96 170.375C291.581 170.375 292.081 170.204 292.461 169.862C292.841 169.52 293.139 169.096 293.354 168.589L293.601 167.943L289.364 158.709H291.245L293.335 163.554C293.5 163.972 293.671 164.415 293.848 164.884C294.038 165.34 294.228 165.802 294.418 166.271H294.494C294.646 165.828 294.805 165.372 294.969 164.903C295.134 164.422 295.292 163.972 295.444 163.554L297.287 158.709H299.073L295.102 168.589C294.862 169.248 294.564 169.824 294.209 170.318C293.855 170.812 293.418 171.198 292.898 171.477C292.392 171.756 291.777 171.895 291.055 171.895Z" fill="white"/>
<path d="M10.35 148V50.35H44.1C50.9 50.35 57.05 51.1 62.55 52.6C68.05 54 72.4 56.45 75.6 59.95C78.8 63.45 80.4 68.35 80.4 74.65C80.4 78.95 79.05 83.15 76.35 87.25C73.65 91.35 69.45 94.15 63.75 95.65V96.25C70.75 97.55 76 100.1 79.5 103.9C83 107.6 84.75 112.7 84.75 119.2C84.75 125.9 83.05 131.4 79.65 135.7C76.35 139.9 71.85 143 66.15 145C60.45 147 54.1 148 47.1 148H10.35ZM34.2 89.2H43.35C48.15 89.2 51.6 88.2 53.7 86.2C55.9 84.2 57 81.5 57 78.1C57 74.8 55.9 72.45 53.7 71.05C51.5 69.65 48.1 68.95 43.5 68.95H34.2V89.2ZM34.2 129.55H45.3C50.8 129.55 54.85 128.55 57.45 126.55C60.05 124.45 61.35 121.35 61.35 117.25C61.35 113.35 60.05 110.55 57.45 108.85C54.95 107.05 50.9 106.15 45.3 106.15H34.2V129.55ZM115.591 148V50.35H139.591V87.4H163.291V50.35H187.291V148H163.291V108.25H139.591V148H115.591ZM266.433 149.8C260.333 149.8 254.533 148.75 249.033 146.65C243.533 144.55 238.633 141.45 234.333 137.35C230.133 133.15 226.783 127.95 224.283 121.75C221.883 115.45 220.683 108.15 220.683 99.85C220.683 88.95 222.783 79.7 226.983 72.1C231.283 64.4 236.983 58.55 244.083 54.55C251.183 50.55 259.133 48.55 267.933 48.55C274.133 48.55 279.783 49.85 284.883 52.45C289.983 54.95 294.183 57.85 297.483 61.15L284.283 75.85C282.083 73.75 279.633 72.15 276.933 71.05C274.333 69.85 271.333 69.25 267.933 69.25C263.633 69.25 259.733 70.45 256.233 72.85C252.833 75.15 250.133 78.55 248.133 83.05C246.233 87.45 245.283 92.75 245.283 98.95C245.283 105.35 246.233 110.8 248.133 115.3C250.133 119.8 252.933 123.25 256.533 125.65C260.133 127.95 264.283 129.1 268.983 129.1C272.283 129.1 275.333 128.35 278.133 126.85C280.933 125.25 283.433 123.3 285.633 121L298.833 135.4C294.833 140.2 290.083 143.8 284.583 146.2C279.083 148.6 273.033 149.8 266.433 149.8Z" fill="white"/>
</svg>
